<svg width="11" height="16" viewBox="0 0 11 16" fill="none" xmlns="http://www.w3.org/2000/svg">
<path d="M8.71591 4.09091C8.63068 3.37121 8.28504 2.8125 7.67898 2.41477C7.07292 2.01705 6.32955 1.81818 5.44886 1.81818C4.80492 1.81818 4.24148 1.92235 3.75852 2.13068C3.2803 2.33901 2.90625 2.62547 2.63636 2.99006C2.37121 3.35464 2.23864 3.76894 2.23864 4.23295C2.23864 4.62121 2.33097 4.95502 2.51562 5.23438C2.70502 5.509 2.9465 5.73864 3.24006 5.9233C3.53362 6.10322 3.84138 6.25237 4.16335 6.37074C4.48532 6.48437 4.78125 6.5767 5.05114 6.64773L6.52841 7.04545C6.9072 7.14489 7.3286 7.2822 7.79261 7.45739C8.26136 7.63258 8.70881 7.87169 9.13494 8.17472C9.56581 8.47301 9.92093 8.85653 10.2003 9.32528C10.4796 9.79403 10.6193 10.3693 10.6193 11.0511C10.6193 11.8371 10.4134 12.5473 10.0014 13.1818C9.59422 13.8163 8.99763 14.3205 8.21165 14.6946C7.4304 15.0687 6.48106 15.2557 5.36364 15.2557C4.32197 15.2557 3.41998 15.0876 2.65767 14.7514C1.90009 14.4152 1.3035 13.9465 0.867898 13.3452C0.437027 12.7438 0.193182 12.0455 0.136364 11.25H1.95455C2.00189 11.7992 2.18655 12.2538 2.50852 12.6136C2.83523 12.9687 3.24716 13.2339 3.74432 13.4091C4.24621 13.5795 4.78598 13.6648 5.36364 13.6648C6.03598 13.6648 6.63968 13.5559 7.17472 13.3381C7.70975 13.1155 8.13352 12.8078 8.44602 12.4148C8.75852 12.017 8.91477 11.553 8.91477 11.0227C8.91477 10.5398 8.77983 10.1468 8.50994 9.84375C8.24006 9.54072 7.88494 9.29451 7.4446 9.10511C7.00426 8.91572 6.52841 8.75 6.01705 8.60795L4.22727 8.09659C3.09091 7.76989 2.19129 7.3035 1.52841 6.69744C0.86553 6.09138 0.534091 5.2983 0.534091 4.31818C0.534091 3.50379 0.754261 2.79356 1.1946 2.1875C1.63968 1.5767 2.23627 1.10322 2.98438 0.767045C3.73722 0.426136 4.57765 0.255681 5.50568 0.255681C6.44318 0.255681 7.27652 0.423768 8.00568 0.759943C8.73485 1.09138 9.3125 1.54593 9.73864 2.12358C10.1695 2.70123 10.3968 3.35701 10.4205 4.09091H8.71591Z" fill="#A30C33"/>
</svg>
